<svg width="1129" height="666" viewBox="0 0 1129 666" fill="none" xmlns="http://www.w3.org/2000/svg">
<path d="M332.096 212.4C319.696 212.4 308.796 209.8 299.396 204.6C289.996 199.2 282.696 191.7 277.496 182.1C272.296 172.5 269.696 161.4 269.696 148.8V3.59999C269.696 2.59999 269.996 1.79999 270.596 1.19999C271.396 0.399987 272.296 -1.43051e-05 273.296 -1.43051e-05H315.896C316.896 -1.43051e-05 317.696 0.399987 318.296 1.19999C319.096 1.79999 319.496 2.59999 319.496 3.59999V153.6C319.496 158.4 320.596 162.3 322.796 165.3C325.196 168.3 328.296 169.8 332.096 169.8C335.896 169.8 338.896 168.3 341.096 165.3C343.496 162.3 344.696 158.4 344.696 153.6V3.59999C344.696 2.59999 344.996 1.79999 345.596 1.19999C346.396 0.399987 347.296 -1.43051e-05 348.296 -1.43051e-05H390.896C391.896 -1.43051e-05 392.696 0.399987 393.296 1.19999C394.096 1.79999 394.496 2.59999 394.496 3.59999V148.8C394.496 161.4 391.896 172.5 386.696 182.1C381.496 191.7 374.196 199.2 364.796 204.6C355.396 209.8 344.496 212.4 332.096 212.4ZM500.257 3.59999C500.257 2.59999 500.557 1.79999 501.157 1.19999C501.957 0.399987 502.857 -1.43051e-05 503.857 -1.43051e-05H545.857C546.857 -1.43051e-05 547.657 0.399987 548.257 1.19999C549.057 1.79999 549.457 2.59999 549.457 3.59999V206.4C549.457 207.4 549.057 208.3 548.257 209.1C547.657 209.7 546.857 210 545.857 210H498.157C495.957 210 494.557 209 493.957 207L464.257 102.6C464.057 102 463.657 101.7 463.057 101.7C462.657 101.5 462.457 101.8 462.457 102.6L463.057 206.4C463.057 207.4 462.657 208.3 461.857 209.1C461.257 209.7 460.457 210 459.457 210H417.457C416.457 210 415.557 209.7 414.757 209.1C414.157 208.3 413.857 207.4 413.857 206.4V3.59999C413.857 2.59999 414.157 1.79999 414.757 1.19999C415.557 0.399987 416.457 -1.43051e-05 417.457 -1.43051e-05H464.557C466.757 -1.43051e-05 468.157 0.999985 468.757 2.99998L498.757 108C498.957 108.6 499.257 108.9 499.657 108.9C500.257 108.9 500.557 108.5 500.557 107.7L500.257 3.59999ZM574.196 210C573.196 210 572.296 209.7 571.496 209.1C570.896 208.3 570.596 207.4 570.596 206.4V3.59999C570.596 2.59999 570.896 1.79999 571.496 1.19999C572.296 0.399987 573.196 -1.43051e-05 574.196 -1.43051e-05H616.796C617.796 -1.43051e-05 618.596 0.399987 619.196 1.19999C619.996 1.79999 620.396 2.59999 620.396 3.59999V206.4C620.396 207.4 619.996 208.3 619.196 209.1C618.596 209.7 617.796 210 616.796 210H574.196ZM766.301 -1.43051e-05C767.301 -1.43051e-05 768.101 0.399987 768.701 1.19999C769.501 1.79999 769.901 2.59999 769.901 3.59999V39C769.901 40 769.501 40.9 768.701 41.7C768.101 42.3 767.301 42.6 766.301 42.6H729.101C728.101 42.6 727.601 43.1 727.601 44.1V206.4C727.601 207.4 727.201 208.3 726.401 209.1C725.801 209.7 725.001 210 724.001 210H681.401C680.401 210 679.501 209.7 678.701 209.1C678.101 208.3 677.801 207.4 677.801 206.4V44.1C677.801 43.1 677.301 42.6 676.301 42.6H640.601C639.601 42.6 638.701 42.3 637.901 41.7C637.301 40.9 637.001 40 637.001 39V3.59999C637.001 2.59999 637.301 1.79999 637.901 1.19999C638.701 0.399987 639.601 -1.43051e-05 640.601 -1.43051e-05H766.301ZM828.507 209.4C827.507 209.4 826.607 209.1 825.807 208.5C825.207 207.7 824.907 206.8 824.907 205.8V132L824.607 130.2L782.607 4.19999C782.407 3.79999 782.307 3.29999 782.307 2.69999C782.307 0.899986 783.307 -1.43051e-05 785.307 -1.43051e-05H830.307C832.307 -1.43051e-05 833.607 1.09999 834.207 3.3L849.207 69.3C849.407 70.1 849.707 70.5 850.107 70.5C850.507 70.5 850.807 70.1 851.007 69.3L866.007 3.3C866.607 1.09999 867.907 -1.43051e-05 869.907 -1.43051e-05H914.907C916.107 -1.43051e-05 916.907 0.399987 917.307 1.19999C917.907 1.79999 918.007 2.79999 917.607 4.19999L875.007 130.2L874.707 132V205.8C874.707 206.8 874.307 207.7 873.507 208.5C872.907 209.1 872.107 209.4 871.107 209.4H828.507ZM462.428 435C461.428 435 460.528 434.7 459.728 434.1C459.128 433.3 458.828 432.4 458.828 431.4V228.6C458.828 227.6 459.128 226.8 459.728 226.2C460.528 225.4 461.428 225 462.428 225H505.028C506.028 225 506.828 225.4 507.428 226.2C508.228 226.8 508.628 227.6 508.628 228.6V431.4C508.628 432.4 508.228 433.3 507.428 434.1C506.828 434.7 506.028 435 505.028 435H462.428ZM615.834 228.6C615.834 227.6 616.134 226.8 616.734 226.2C617.534 225.4 618.434 225 619.434 225H661.434C662.434 225 663.234 225.4 663.834 226.2C664.634 226.8 665.034 227.6 665.034 228.6V431.4C665.034 432.4 664.634 433.3 663.834 434.1C663.234 434.7 662.434 435 661.434 435H613.734C611.534 435 610.134 434 609.534 432L579.834 327.6C579.634 327 579.234 326.7 578.634 326.7C578.234 326.5 578.034 326.8 578.034 327.6L578.634 431.4C578.634 432.4 578.234 433.3 577.434 434.1C576.834 434.7 576.034 435 575.034 435H533.034C532.034 435 531.134 434.7 530.334 434.1C529.734 433.3 529.434 432.4 529.434 431.4V228.6C529.434 227.6 529.734 226.8 530.334 226.2C531.134 225.4 532.034 225 533.034 225H580.134C582.334 225 583.734 226 584.334 228L614.334 333C614.534 333.6 614.834 333.9 615.234 333.9C615.834 333.9 616.134 333.5 616.134 332.7L615.834 228.6ZM4.225 663C3.225 663 2.325 662.7 1.525 662.1C0.925 661.3 0.625 660.4 0.625 659.4V456.6C0.625 455.6 0.925 454.8 1.525 454.2C2.325 453.4 3.225 453 4.225 453H61.525C80.725 453 96.125 458.4 107.725 469.2C119.325 480 125.125 494.3 125.125 512.1V603.9C125.125 621.7 119.325 636 107.725 646.8C96.125 657.6 80.725 663 61.525 663H4.225ZM50.425 618.9C50.425 619.9 50.925 620.4 51.925 620.4L60.325 620.1C64.525 619.9 68.025 618.1 70.825 614.7C73.625 611.1 75.125 606.4 75.325 600.6V515.4C75.325 509.4 73.925 504.6 71.125 501C68.325 497.4 64.625 495.6 60.025 495.6H51.925C50.925 495.6 50.425 496.1 50.425 497.1V618.9ZM148.366 663C147.366 663 146.466 662.7 145.666 662.1C145.066 661.3 144.766 660.4 144.766 659.4V456.6C144.766 455.6 145.066 454.8 145.666 454.2C146.466 453.4 147.366 453 148.366 453H190.966C191.966 453 192.766 453.4 193.366 454.2C194.166 454.8 194.566 455.6 194.566 456.6V659.4C194.566 660.4 194.166 661.3 193.366 662.1C192.766 662.7 191.966 663 190.966 663H148.366ZM257.071 663C254.871 663 253.571 661.9 253.171 659.7L210.571 456.9L210.271 455.7C210.271 453.9 211.371 453 213.571 453H260.071C262.471 453 263.771 454.1 263.971 456.3L281.071 576C281.271 576.8 281.571 577.2 281.971 577.2C282.571 577 282.871 576.6 282.871 576L298.771 456.3C298.971 454.1 300.271 453 302.671 453H347.971C350.571 453 351.571 454.3 350.971 456.9L308.071 659.7C307.671 661.9 306.371 663 304.171 663H257.071ZM482.329 492C482.329 493 481.929 493.9 481.129 494.7C480.529 495.3 479.729 495.6 478.729 495.6H418.429C417.429 495.6 416.929 496.1 416.929 497.1V534.9C416.929 535.9 417.429 536.4 418.429 536.4H451.429C452.429 536.4 453.229 536.8 453.829 537.6C454.629 538.2 455.029 539 455.029 540V575.7C455.029 576.7 454.629 577.6 453.829 578.4C453.229 579 452.429 579.3 451.429 579.3H418.429C417.429 579.3 416.929 579.8 416.929 580.8V618.9C416.929 619.9 417.429 620.4 418.429 620.4H478.729C479.729 620.4 480.529 620.8 481.129 621.6C481.929 622.2 482.329 623 482.329 624V659.4C482.329 660.4 481.929 661.3 481.129 662.1C480.529 662.7 479.729 663 478.729 663H370.729C369.729 663 368.829 662.7 368.029 662.1C367.429 661.3 367.129 660.4 367.129 659.4V456.6C367.129 455.6 367.429 454.8 368.029 454.2C368.829 453.4 369.729 453 370.729 453H478.729C479.729 453 480.529 453.4 481.129 454.2C481.929 454.8 482.329 455.6 482.329 456.6V492ZM581.451 663C579.251 663 577.851 662 577.251 660L556.851 580.5C556.651 579.7 556.151 579.3 555.351 579.3H550.851C549.851 579.3 549.351 579.8 549.351 580.8V659.4C549.351 660.4 548.951 661.3 548.151 662.1C547.551 662.7 546.751 663 545.751 663H503.151C502.151 663 501.251 662.7 500.451 662.1C499.851 661.3 499.551 660.4 499.551 659.4V456.6C499.551 455.6 499.851 454.8 500.451 454.2C501.251 453.4 502.151 453 503.151 453H567.651C579.251 453 589.551 455.8 598.551 461.4C607.551 466.8 614.451 474.5 619.251 484.5C624.251 494.3 626.751 505.5 626.751 518.1C626.751 529.3 624.651 539.4 620.451 548.4C616.451 557.2 610.751 564.3 603.351 569.7C602.951 569.9 602.651 570.2 602.451 570.6C602.251 570.8 602.251 571.1 602.451 571.5L628.251 658.8L628.551 660C628.551 662 627.451 663 625.251 663H581.451ZM550.851 495.6C549.851 495.6 549.351 496.1 549.351 497.1V539.7C549.351 540.7 549.851 541.2 550.851 541.2H559.251C564.651 541.2 568.951 539.2 572.151 535.2C575.351 531.2 576.951 525.7 576.951 518.7C576.951 511.3 575.351 505.6 572.151 501.6C568.951 497.6 564.651 495.6 559.251 495.6H550.851ZM702.777 665.4C690.577 665.4 679.877 663.1 670.677 658.5C661.477 653.7 654.277 647.1 649.077 638.7C644.077 630.1 641.577 620.4 641.577 609.6V600.3C641.577 599.3 641.877 598.5 642.477 597.9C643.277 597.1 644.177 596.7 645.177 596.7H687.177C688.177 596.7 688.977 597.1 689.577 597.9C690.377 598.5 690.777 599.3 690.777 600.3V607.2C690.777 612 691.877 615.8 694.077 618.6C696.477 621.4 699.477 622.8 703.077 622.8C706.677 622.8 709.577 621.5 711.777 618.9C714.177 616.1 715.377 612.6 715.377 608.4C715.377 603.8 713.577 599.7 709.977 596.1C706.377 592.3 699.177 586.5 688.377 578.7C678.377 571.5 670.177 565.1 663.777 559.5C657.377 553.7 651.877 546.6 647.277 538.2C642.677 529.6 640.377 519.7 640.377 508.5C640.377 497.1 642.877 487 647.877 478.2C653.077 469.4 660.277 462.6 669.477 457.8C678.877 453 689.577 450.6 701.577 450.6C713.777 450.6 724.477 453.1 733.677 458.1C743.077 462.9 750.277 469.8 755.277 478.8C760.477 487.6 763.077 497.8 763.077 509.4V516.6C763.077 517.6 762.677 518.5 761.877 519.3C761.277 519.9 760.477 520.2 759.477 520.2H717.777C716.777 520.2 715.877 519.9 715.077 519.3C714.477 518.5 714.177 517.6 714.177 516.6V508.2C714.177 503.8 712.977 500.2 710.577 497.4C708.177 494.6 705.177 493.2 701.577 493.2C697.977 493.2 695.077 494.6 692.877 497.4C690.677 500.2 689.577 503.9 689.577 508.5C689.577 513.5 691.277 518 694.677 522C698.077 526 704.977 531.8 715.377 539.4C727.977 548.8 737.477 556.4 743.877 562.2C750.277 568 755.277 574.5 758.877 581.7C762.477 588.7 764.277 597 764.277 606.6C764.277 624.6 758.577 638.9 747.177 649.5C735.977 660.1 721.177 665.4 702.777 665.4ZM784.108 663C783.108 663 782.208 662.7 781.408 662.1C780.808 661.3 780.508 660.4 780.508 659.4V456.6C780.508 455.6 780.808 454.8 781.408 454.2C782.208 453.4 783.108 453 784.108 453H826.708C827.708 453 828.508 453.4 829.108 454.2C829.908 454.8 830.308 455.6 830.308 456.6V659.4C830.308 660.4 829.908 661.3 829.108 662.1C828.508 662.7 827.708 663 826.708 663H784.108ZM976.213 453C977.213 453 978.013 453.4 978.613 454.2C979.413 454.8 979.813 455.6 979.813 456.6V492C979.813 493 979.413 493.9 978.613 494.7C978.013 495.3 977.213 495.6 976.213 495.6H939.013C938.013 495.6 937.513 496.1 937.513 497.1V659.4C937.513 660.4 937.113 661.3 936.313 662.1C935.713 662.7 934.913 663 933.913 663H891.313C890.313 663 889.413 662.7 888.613 662.1C888.013 661.3 887.713 660.4 887.713 659.4V497.1C887.713 496.1 887.213 495.6 886.213 495.6H850.513C849.513 495.6 848.613 495.3 847.813 494.7C847.213 493.9 846.913 493 846.913 492V456.6C846.913 455.6 847.213 454.8 847.813 454.2C848.613 453.4 849.513 453 850.513 453H976.213ZM1038.42 662.4C1037.42 662.4 1036.52 662.1 1035.72 661.5C1035.12 660.7 1034.82 659.8 1034.82 658.8V585L1034.52 583.2L992.519 457.2C992.319 456.8 992.219 456.3 992.219 455.7C992.219 453.9 993.219 453 995.219 453H1040.22C1042.22 453 1043.52 454.1 1044.12 456.3L1059.12 522.3C1059.32 523.1 1059.62 523.5 1060.02 523.5C1060.42 523.5 1060.72 523.1 1060.92 522.3L1075.92 456.3C1076.52 454.1 1077.82 453 1079.82 453H1124.82C1126.02 453 1126.82 453.4 1127.22 454.2C1127.82 454.8 1127.92 455.8 1127.52 457.2L1084.92 583.2L1084.62 585V658.8C1084.62 659.8 1084.22 660.7 1083.42 661.5C1082.82 662.1 1082.02 662.4 1081.02 662.4H1038.42Z" fill="white"/>
</svg>
